<svg height="512" viewBox="0 0 512 512" width="512" xmlns="http://www.w3.org/2000/svg"><g id="filled_outline" data-name="filled outline"><path d="m114 214a84.934 84.934 0 0 1 53-24.582l21.571-1.8a190.257 190.257 0 0 1 84.1 12.024 109.22 109.22 0 0 1 69.552 91.922l1.777 19.275-248 1.161-4.337-17.35a84.927 84.927 0 0 1 22.337-80.65z" fill="#d78e0c"/><path d="m342.656 307.562-11.219-16.829a77.843 77.843 0 0 0 -64.9-34.733h-18.537l14.4-19.2a8 8 0 1 0 -12.8-9.6l-34.819 48.4a8 8 0 1 0 13.364 8.8l8.166-12.4h15.378l-2.371 3.6a8 8 0 1 0 13.364 8.8l8.069-12.254a61.861 61.861 0 0 1 47.373 27.462l2.859 4.289-122.227-.834a30.936 30.936 0 0 1 -21.694-52.811l12.6-12.595a8 8 0 0 0 -11.314-11.314l-12.6 12.6a46.936 46.936 0 0 0 32.908 80.124l137.29.937h.054a8 8 0 0 0 6.656-12.438z" fill="#b2750a"/><path d="m184.764 294.412 23.236 17.427v48l-23.236 17.427a107.058 107.058 0 0 1 -90.2 18.215 61.477 61.477 0 0 1 -46.564-59.642 61.477 61.477 0 0 1 46.567-59.639 107.055 107.055 0 0 1 90.197 18.212z" fill="#ee9d0d"/><path d="m265.371 311.839h-57.371v48h57.371a24 24 0 1 0 40.513-24 24 24 0 1 0 -40.513-24z" fill="#cdccc8"/><circle cx="136" cy="334.839" fill="#c7830b" r="8"/><circle cx="120" cy="305" fill="#c7830b" r="8"/><circle cx="136" cy="240" fill="#b2750a" r="8"/><circle cx="230.983" cy="217.017" fill="#b2750a" r="8"/><circle cx="184" cy="335.839" fill="#c7830b" r="8"/><path d="m304 328-3.076 12.306a26 26 0 0 1 -25.224 19.694h-71.4a26 26 0 0 1 -25.224-19.694l-3.076-12.306h-144l16 112h384l16-112z" fill="#cb2527"/><path d="m375.914 349.5-32.343 4.62-38.179-38.18 4.62-32.343a120.421 120.421 0 0 1 57.254-86.23 69.152 69.152 0 0 1 84.477 10.4 69.152 69.152 0 0 1 10.4 84.477 120.422 120.422 0 0 1 -86.229 57.256z" fill="#ee9d0d"/><path d="m297.938 399.752 45.633-45.633-38.179-38.179-45.633 45.633a27 27 0 1 0 -13.134 51.313 27 27 0 1 0 51.313-13.134z" fill="#dcdbd6"/><path d="m297.94 399.75a27 27 0 0 1 -43.45 30.73 25.406 25.406 0 0 1 -2.94-3.49 27 27 0 0 0 38.58-34.59l45.87-45.851 7.571 7.571z" fill="#cdccc8"/><g fill="#c7830b"><circle cx="394.476" cy="265.035" r="8.999"/><circle cx="394.476" cy="303.214" r="8.999"/><circle cx="356.297" cy="303.214" r="8.999"/></g><path d="m96 416h-16a8 8 0 0 1 0-16h16a8 8 0 0 1 0 16z" fill="#ea2b2d"/><path d="m176 416h-48a8 8 0 0 1 0-16h48a8 8 0 0 1 0 16z" fill="#ea2b2d"/><path d="m404 160a8 8 0 0 1 -8-8c0-8.422 3.089-13.055 5.344-16.438 1.768-2.653 2.656-3.985 2.656-7.562s-.888-4.91-2.656-7.563c-2.255-3.384-5.344-8.017-5.344-16.437s3.089-13.055 5.344-16.437c1.768-2.654 2.656-3.986 2.656-7.563a8 8 0 0 1 16 0c0 8.422-3.089 13.055-5.344 16.437-1.768 2.652-2.656 3.984-2.656 7.563s.888 4.91 2.656 7.563c2.255 3.381 5.344 8.014 5.344 16.437s-3.089 13.055-5.344 16.438c-1.768 2.652-2.656 3.984-2.656 7.562a8 8 0 0 1 -8 8z" fill="#ffc864"/><path d="m448 160a8 8 0 0 1 -8-8c0-8.422 3.089-13.055 5.344-16.438 1.768-2.653 2.656-3.985 2.656-7.562s-.888-4.91-2.656-7.563c-2.255-3.384-5.344-8.017-5.344-16.437a26.323 26.323 0 0 1 2.381-11.384 8 8 0 1 1 14.5 6.772 10.217 10.217 0 0 0 -.881 4.612c0 3.578.888 4.91 2.656 7.563 2.256 3.381 5.344 8.014 5.344 16.437s-3.089 13.055-5.344 16.438c-1.768 2.652-2.656 3.984-2.656 7.562a8 8 0 0 1 -8 8z" fill="#ffc864"/><path d="m360 160a8 8 0 0 1 -8-8c0-8.422 3.089-13.055 5.344-16.438 1.768-2.653 2.656-3.985 2.656-7.562s-.888-4.91-2.656-7.563c-2.255-3.384-5.344-8.017-5.344-16.437a26.323 26.323 0 0 1 2.381-11.384 8 8 0 1 1 14.5 6.772 10.217 10.217 0 0 0 -.881 4.612c0 3.578.888 4.91 2.656 7.563 2.256 3.381 5.344 8.014 5.344 16.437s-3.089 13.055-5.344 16.438c-1.768 2.652-2.656 3.984-2.656 7.562a8 8 0 0 1 -8 8z" fill="#ffc864"/><circle cx="120" cy="305" r="8"/><circle cx="136" cy="240" r="8"/><circle cx="230.983" cy="217.017" r="8"/><path d="m457.4 202.11a77.044 77.044 0 0 0 -94.251-11.6 128.353 128.353 0 0 0 -39.237 36.535 116.55 116.55 0 0 0 -48.369-34.866 199.42 199.42 0 0 0 -87.634-12.53l-21.571 1.8a92.883 92.883 0 0 0 -85.173 90.944 69.136 69.136 0 0 0 -39.337 47.607h-9.828a8 8 0 0 0 -7.92 9.131l16 112a8 8 0 0 0 7.92 6.869h384a8 8 0 0 0 7.92-6.869l16-112a7.986 7.986 0 0 0 -5.49-8.748 129.129 129.129 0 0 0 18.57-24.023 77.042 77.042 0 0 0 -11.6-94.25zm-166.68 201.09a19 19 0 1 1 -36.107 9.246 8 8 0 0 0 -7.547-7.547 18.993 18.993 0 1 1 9.245-36.106 8 8 0 0 0 9.105-1.563l39.976-39.975 26.865 26.865-39.976 39.98a8 8 0 0 0 -1.561 9.1zm7.129-91.03-40.115 40.114a35.065 35.065 0 0 0 -18.091-.284h-23.643v-32.161h49.371a8 8 0 0 0 7.543-5.334 15.97 15.97 0 0 1 25.563-6.729zm-178.19-92.514a77.016 77.016 0 0 1 48.008-22.266l21.571-1.8a183.343 183.343 0 0 1 80.562 11.52 100.655 100.655 0 0 1 45.264 34.59 128.16 128.16 0 0 0 -9.624 24.718 78.247 78.247 0 0 0 -38.903-10.418h-18.537l14.4-19.2a8 8 0 1 0 -12.8-9.6l-35.626 48.121a8 8 0 0 0 12.978 9.358l9.148-12.679h15.594l-2.371 3.6a8 8 0 1 0 13.364 8.8l8.062-12.242a62.252 62.252 0 0 1 31.25 11l-1.059 7.414a32 32 0 0 0 -40.648 13.27h-49.626l-21.1-15.827a115.762 115.762 0 0 0 -21.4-12.71 31.392 31.392 0 0 1 -.162-3.174 30.735 30.735 0 0 1 9.062-21.876l12.6-12.595a8 8 0 0 0 -11.314-11.314l-12.6 12.6a46.585 46.585 0 0 0 -13.659 30.431 114.6 114.6 0 0 0 -54.659-2.016 76.343 76.343 0 0 1 22.225-47.706zm-23.152 64.3a98.651 98.651 0 0 1 83.457 16.854l20.036 15.029v35.636a17.965 17.965 0 0 1 -11.568-8.977 7.994 7.994 0 0 0 -4.224-14.649l-.447-1.789a8 8 0 0 0 -7.761-6.06h-117.614a53.273 53.273 0 0 1 38.121-36.042zm-55.283 52.044h128.53l1.561 6.247a33.95 33.95 0 0 0 32.985 25.753h13.772a35 35 0 0 0 21.555 51.884 34.886 34.886 0 0 0 5.685 12.116h-190.374zm383.838 96h-123.226a35.088 35.088 0 0 0 5.392-30.224l40.114-40.115 29.7-4.243a128.215 128.215 0 0 0 54.838-21.418h6.9zm30.221-143.872a111.96 111.96 0 0 1 -80.5 53.451l-28.383 4.055-32.522-32.522 4.056-28.384c.171-1.2.365-2.389.574-3.576l.012-.068a111.925 111.925 0 0 1 52.864-76.857 61.152 61.152 0 0 1 83.9 83.9z"/><path d="m388.113 258.672a9 9 0 1 0 12.726 0 9 9 0 0 0 -12.726 0z"/><path d="m388.113 296.851a9 9 0 1 0 12.726 0 9 9 0 0 0 -12.726 0z"/><circle cx="356.297" cy="303.214" r="8.999"/><path d="m96 400h-16a8 8 0 0 0 0 16h16a8 8 0 0 0 0-16z"/><path d="m176 400h-48a8 8 0 0 0 0 16h48a8 8 0 0 0 0-16z"/><path d="m396 152a8 8 0 0 0 16 0c0-3.578.888-4.91 2.656-7.563 2.255-3.383 5.344-8.016 5.344-16.437s-3.089-13.055-5.344-16.438c-1.768-2.654-2.656-3.986-2.656-7.562s.888-4.909 2.656-7.561c2.255-3.384 5.344-8.017 5.344-16.439a8 8 0 0 0 -16 0c0 3.577-.888 4.909-2.656 7.561-2.255 3.382-5.344 8.015-5.344 16.439s3.089 13.055 5.344 16.438c1.768 2.651 2.656 3.983 2.656 7.562s-.888 4.91-2.656 7.563c-2.255 3.382-5.344 8.015-5.344 16.437z"/><path d="m440 152a8 8 0 0 0 16 0c0-3.578.888-4.91 2.656-7.563 2.255-3.383 5.344-8.016 5.344-16.437s-3.088-13.055-5.344-16.438c-1.768-2.654-2.656-3.986-2.656-7.562a10.217 10.217 0 0 1 .877-4.612 8 8 0 1 0 -14.5-6.772 26.323 26.323 0 0 0 -2.377 11.384c0 8.422 3.089 13.055 5.344 16.438 1.768 2.651 2.656 3.983 2.656 7.562s-.888 4.91-2.656 7.563c-2.255 3.382-5.344 8.015-5.344 16.437z"/><path d="m352 152a8 8 0 0 0 16 0c0-3.578.888-4.91 2.656-7.563 2.255-3.383 5.344-8.016 5.344-16.437s-3.088-13.055-5.344-16.438c-1.768-2.654-2.656-3.986-2.656-7.562a10.217 10.217 0 0 1 .877-4.612 8 8 0 1 0 -14.5-6.772 26.323 26.323 0 0 0 -2.377 11.384c0 8.422 3.089 13.055 5.344 16.438 1.768 2.651 2.656 3.983 2.656 7.562s-.888 4.91-2.656 7.563c-2.255 3.382-5.344 8.015-5.344 16.437z"/></g></svg>