<svg height="512" viewBox="0 0 64 64" width="512" xmlns="http://www.w3.org/2000/svg"><g id="Filled_outline" data-name="Filled outline"><path d="m3.289 33a4.02 4.02 0 0 1 0-2.966 4.164 4.164 0 0 1 2.011-1.978 17.588 17.588 0 0 1 6.028-1.978c5.27-.851 4.909-10.338 10.047-11.865 3.327-.989 8.322 1.55 10.047 5.933s-.742 8.733-3.014 10.876a10.541 10.541 0 0 1 -3.016 1.978z" fill="#8ec13f"/><path d="m34 33c.063-1.7.423-3.942 2-5 2.852-1.912 7.259 1.677 9 0 1.675-1.614-1.8-5.52 0-9 1.279-2.469 5.154-4.6 8-3 2.684 1.511 2.491 5.865 2 8-.5 2.191-2.439 3.115-2 4 .416.837 2.079.279 4 1a7.83 7.83 0 0 1 4 4z" fill="#55b56a"/><path d="m13.792 33a80.356 80.356 0 0 1 -6.753-9c-3.068-4.744-4.588-7.154-3.858-9 1.2-3.035 7.554-4.322 11.576-2 5.268 3.042 6.469 11.6 4.039 17a12.023 12.023 0 0 1 -2.11 3z" fill="#55b56a"/><circle cx="33" cy="30" fill="#e4544f" r="7"/><path d="m36 5h2a8 8 0 0 1 8 8v4a0 0 0 0 1 0 0h-2a8 8 0 0 1 -8-8v-4a0 0 0 0 1 0 0z" fill="#8ec13f" transform="matrix(0 1 -1 0 52 -30)"/><circle cx="28" cy="8" fill="#f9bb4b" r="2"/><circle cx="15" cy="5" fill="#f9bb4b" r="2"/><path d="m3 33h58a0 0 0 0 1 0 0 28 28 0 0 1 -28 28h-2a28 28 0 0 1 -28-28 0 0 0 0 1 0 0z" fill="#87cee9"/><path d="m57.351 28.063a9.209 9.209 0 0 0 -2.657-.5c-.18-.014-.4-.03-.578-.052.089-.118.193-.248.28-.358a7.093 7.093 0 0 0 1.579-2.928c.58-2.533.709-7.3-2.486-9.1a5.825 5.825 0 0 0 -4.607-.389 8.2 8.2 0 0 0 -4.77 3.8c-1.138 2.2-.528 4.437-.037 6.234.3 1.112.59 2.162.231 2.5-.417.4-1.661.065-2.865-.264-.377-.1-.764-.2-1.152-.3a8.007 8.007 0 0 0 -7.289-4.706c-.028 0-.054 0-.082 0a9.293 9.293 0 0 0 -.568-2.22c-1.994-5.063-7.593-7.623-11.266-6.532a6 6 0 0 0 -2.719 1.766 10.015 10.015 0 0 0 -3.108-2.884 11.494 11.494 0 0 0 -9.159-.7 6.042 6.042 0 0 0 -3.848 3.2c-.933 2.362.8 5.043 3.95 9.91.336.52.687 1.029 1.035 1.541a18.192 18.192 0 0 0 -2.413 1.1 5.252 5.252 0 0 0 -2.449 2.449 9.9 9.9 0 0 0 -.373 3.37 29.033 29.033 0 0 0 29 29h2a29.033 29.033 0 0 0 29-29 1.784 1.784 0 0 0 -.108-.452 8.659 8.659 0 0 0 -4.541-4.485zm-16.429.884c1.741.472 3.539.96 4.77-.225 1.215-1.164.756-2.846.312-4.473s-.895-3.283-.116-4.789a6.2 6.2 0 0 1 3.567-2.8 3.919 3.919 0 0 1 3.054.216c2.013 1.134 2.01 4.751 1.516 6.906a5.256 5.256 0 0 1 -1.189 2.118c-.548.685-1.23 1.536-.731 2.546.482.963 1.523 1.041 2.441 1.109a7.322 7.322 0 0 1 2.1.38 5.77 5.77 0 0 1 2.569 2.065h-10.015c.23-1.263.483-2.527.775-3.771.545-2.323 1.209-4.648 1.973-6.909l-1.894-.64c-.785 2.321-1.467 4.707-2.027 7.091-.327 1.395-.609 2.813-.859 4.229h-6.43a7.541 7.541 0 0 0 .184-3.053zm-6.922-2.947v-1.91a6.01 6.01 0 0 1 4.766 4.268l-2.082.694.632 1.9 1.663-.554a5.826 5.826 0 0 1 -.325 1.602h-11.308a5.886 5.886 0 0 1 -.346-2 6.026 6.026 0 0 1 .031-.6l1.653.551.632-1.9-1.748-.583a6.01 6.01 0 0 1 4.432-3.378v1.91zm-12.345-10.831c2.726-.812 7.276 1.393 8.835 5.349a7.294 7.294 0 0 1 .449 1.761 7.959 7.959 0 0 0 -5.688 9.682l-.083.039h-4.612c.428-.445.847-.9 1.228-1.38a20.483 20.483 0 0 0 4.21-10.511l-1.988-.218a18.6 18.6 0 0 1 -3.79 9.489c-.056.071-.124.133-.181.2a17 17 0 0 0 -.582-12.747 4.346 4.346 0 0 1 2.202-1.664zm-17.544.2a4.2 4.2 0 0 1 2.646-2.044 9.56 9.56 0 0 1 7.5.543c4.784 2.762 5.878 10.721 3.627 15.724-.079.176-.172.338-.262.5-.193-.815-.41-1.622-.674-2.409a29.153 29.153 0 0 0 -8.277-12.424l-1.342 1.482a27.189 27.189 0 0 1 7.723 11.576 25.744 25.744 0 0 1 .927 3.683h-1.729a79.677 79.677 0 0 1 -6.371-8.543c-2.841-4.393-4.299-6.747-3.768-8.09zm.089 15.068a3.164 3.164 0 0 1 1.575-1.5 15.985 15.985 0 0 1 2.643-1.154q1.557 2.169 3.235 4.217h-7.6a2.727 2.727 0 0 1 .147-1.563zm28.8 29.563h-2a27.032 27.032 0 0 1 -26.982-26h55.964a27.032 27.032 0 0 1 -26.982 26z"/><path d="m32 28h2v2h-2z"/><path d="m34 14v2a1 1 0 0 0 1 1h4a9.01 9.01 0 0 0 9-9v-2a1 1 0 0 0 -1-1h-4a9.01 9.01 0 0 0 -9 9zm9-7h3v1a7.008 7.008 0 0 1 -7 7h-1.3l4.948-4.241-1.3-1.518-5.34 4.577a7 7 0 0 1 6.992-6.818z"/><path d="m25 8a3 3 0 1 0 3-3 3 3 0 0 0 -3 3zm4 0a1 1 0 1 1 -1-1 1 1 0 0 1 1 1z"/><path d="m12 5a3 3 0 1 0 3-3 3 3 0 0 0 -3 3zm4 0a1 1 0 1 1 -1-1 1 1 0 0 1 1 1z"/><path d="m10.855 43.481-1.71 1.038a27.157 27.157 0 0 0 11.42 10.381l.87-1.8a25.172 25.172 0 0 1 -10.58-9.619z"/><path d="m23 54h2v2h-2z"/></g></svg>